<svg
  xmlns="http://www.w3.org/2000/svg"
  viewBox="0 0 128 128"
  role="img"
  aria-label="Trakky Icon"
>
  <defs>
    <linearGradient id="trakkyGradient" x1="0" y1="0" x2="1" y2="1">
      <stop offset="0%" stop-color="#4FBCFF" />
      <stop offset="100%" stop-color="#6EE7B7" />
    </linearGradient>

    <linearGradient id="trakkyRoute" x1="0" y1="1" x2="1" y2="0">
      <stop offset="0%" stop-color="#38BDF8" />
      <stop offset="100%" stop-color="#0EA5E9" />
    </linearGradient>
  </defs>

  <rect
    x="20"
    y="20"
    width="88"
    height="88"
    rx="24"
    fill="none"
    stroke="url(#trakkyGradient)"
    stroke-width="6"
  />

  <path
    d="M32 88
       Q48 60 64 66
       T96 52"
    fill="none"
    stroke="url(#trakkyRoute)"
    stroke-width="4"
    stroke-linecap="round"
    stroke-linejoin="round"
    opacity="0.75"
  />
  
  <path
    d="M36 42
       H92
       a6 6 0 0 1 6 6
       v4
       a6 6 0 0 1 -6 6
       H70
       v32
       a6 6 0 0 1 -6 6
       h-4
       a6 6 0 0 1 -6 -6
       V58
       H36
       a6 6 0 0 1 -6 -6
       v-4
       a6 6 0 0 1 6 -6
       Z"
    fill="url(#trakkyGradient)"
  />
</svg>
